<svg width="30" height="30" viewBox="0 0 30 30" fill="none" xmlns="http://www.w3.org/2000/svg">
<path d="M10.8641 13.0092H7.64893V10.9727H10.6001H11.0987C11.0988 10.9727 11.0989 10.9727 11.099 10.9727C11.1059 10.9734 11.1209 10.9754 11.1413 10.9804C11.1828 10.9906 11.239 11.0112 11.2951 11.0524C11.383 11.117 11.5726 11.3061 11.5726 11.8878C11.5726 12.5499 11.4364 12.7926 11.3506 12.8809C11.2743 12.9594 11.1481 13.009 10.8641 13.0092Z" fill="#15528A"/>
<path d="M10.8641 13.0092H7.64893V10.9727H10.6001H11.0987C11.0988 10.9727 11.0989 10.9727 11.099 10.9727C11.1059 10.9734 11.1209 10.9754 11.1413 10.9804C11.1828 10.9906 11.239 11.0112 11.2951 11.0524C11.383 11.117 11.5726 11.3061 11.5726 11.8878C11.5726 12.5499 11.4364 12.7926 11.3506 12.8809C11.2743 12.9594 11.1481 13.009 10.8641 13.0092Z" stroke="#15528A"/>
<path d="M10.8641 13.0092H7.64893V10.9727H10.6001H11.0987C11.0988 10.9727 11.0989 10.9727 11.099 10.9727C11.1059 10.9734 11.1209 10.9754 11.1413 10.9804C11.1828 10.9906 11.239 11.0112 11.2951 11.0524C11.383 11.117 11.5726 11.3061 11.5726 11.8878C11.5726 12.5499 11.4364 12.7926 11.3506 12.8809C11.2743 12.9594 11.1481 13.009 10.8641 13.0092Z" stroke="url(#paint0_linear)"/>
<path d="M11.1102 16.1051V16.1052L11.1114 16.1051C11.1144 16.1052 11.1213 16.1055 11.1315 16.1064C11.1533 16.1081 11.1888 16.1122 11.2334 16.1213C11.3239 16.14 11.4415 16.1777 11.5564 16.2518C11.7552 16.38 12.0446 16.6786 12.0446 17.4742C12.0446 18.1382 11.8315 18.4089 11.6543 18.5381C11.4478 18.6888 11.1728 18.734 10.9198 18.7419H7.64893V16.1051H11.1102Z" fill="#15528A"/>
<path d="M11.1102 16.1051V16.1052L11.1114 16.1051C11.1144 16.1052 11.1213 16.1055 11.1315 16.1064C11.1533 16.1081 11.1888 16.1122 11.2334 16.1213C11.3239 16.14 11.4415 16.1777 11.5564 16.2518C11.7552 16.38 12.0446 16.6786 12.0446 17.4742C12.0446 18.1382 11.8315 18.4089 11.6543 18.5381C11.4478 18.6888 11.1728 18.734 10.9198 18.7419H7.64893V16.1051H11.1102Z" stroke="#15528A"/>
<path d="M11.1102 16.1051V16.1052L11.1114 16.1051C11.1144 16.1052 11.1213 16.1055 11.1315 16.1064C11.1533 16.1081 11.1888 16.1122 11.2334 16.1213C11.3239 16.14 11.4415 16.1777 11.5564 16.2518C11.7552 16.38 12.0446 16.6786 12.0446 17.4742C12.0446 18.1382 11.8315 18.4089 11.6543 18.5381C11.4478 18.6888 11.1728 18.734 10.9198 18.7419H7.64893V16.1051H11.1102Z" stroke="url(#paint1_linear)"/>
<path d="M22.6277 14.775C22.6817 14.8858 22.7215 14.9985 22.7506 15.1045H19.5342C19.5759 15.0139 19.6262 14.9193 19.6863 14.8254C19.9502 14.4136 20.4042 14.0068 21.2511 14.0068C21.6894 14.0068 21.9823 14.1148 22.1836 14.2498C22.3878 14.3869 22.5291 14.5732 22.6277 14.775Z" fill="#15528A"/>
<path d="M22.6277 14.775C22.6817 14.8858 22.7215 14.9985 22.7506 15.1045H19.5342C19.5759 15.0139 19.6262 14.9193 19.6863 14.8254C19.9502 14.4136 20.4042 14.0068 21.2511 14.0068C21.6894 14.0068 21.9823 14.1148 22.1836 14.2498C22.3878 14.3869 22.5291 14.5732 22.6277 14.775Z" stroke="#15528A"/>
<path d="M22.6277 14.775C22.6817 14.8858 22.7215 14.9985 22.7506 15.1045H19.5342C19.5759 15.0139 19.6262 14.9193 19.6863 14.8254C19.9502 14.4136 20.4042 14.0068 21.2511 14.0068C21.6894 14.0068 21.9823 14.1148 22.1836 14.2498C22.3878 14.3869 22.5291 14.5732 22.6277 14.775Z" stroke="url(#paint2_linear)"/>
<path d="M18.2704 8.35361H17.7704V8.85361V10.5293V11.0293H18.2704H20.7041C19.5441 11.1019 18.6222 11.4309 17.8959 11.915C17.0726 12.4637 16.5302 13.1917 16.1741 13.9046C15.8659 14.5216 15.6935 15.134 15.5966 15.6269C15.4271 15.2007 15.1667 14.7614 14.7637 14.4138C14.652 14.3175 14.5312 14.2298 14.4011 14.1523C14.9737 13.6933 15.4607 12.9199 15.4607 11.675C15.4607 10.3324 14.9873 9.28121 14.1699 8.57256C13.3629 7.87297 12.273 7.55197 11.11 7.55197H7.14905H7.03274H4.02905H3.52905V8.05197V21.6595V22.1595H4.02905H7.03274H7.14905H11.1045L11.1146 22.1597C11.1255 22.1599 11.1404 22.1601 11.159 22.1601C11.1964 22.16 11.2489 22.1594 11.3145 22.157C11.4455 22.1521 11.6297 22.1402 11.8494 22.1119C12.2863 22.0557 12.8778 21.9334 13.4763 21.6648C14.0764 21.3954 14.6962 20.9729 15.1652 20.3119C15.4401 19.9243 15.6552 19.4659 15.7869 18.9273C15.8546 19.1329 15.9365 19.3436 16.0354 19.555C16.3714 20.2728 16.9065 21.0027 17.7516 21.5507C18.5953 22.0978 19.7149 22.4421 21.1857 22.444L21.1895 22.4442C21.1946 22.4444 21.2005 22.4447 21.2074 22.4449C21.2155 22.4452 21.225 22.4456 21.2356 22.4459C21.2746 22.447 21.3299 22.4481 21.3993 22.4479C21.5377 22.4475 21.733 22.4424 21.9663 22.4232C22.4301 22.3853 23.0588 22.2911 23.6955 22.0619C24.3317 21.8328 24.9997 21.4601 25.5101 20.8505C26.0276 20.2324 26.3543 19.4046 26.3543 18.325V17.9206H26.3731L26.4299 17.4853L25.9341 17.4206C26.4299 17.4853 26.4299 17.4851 26.43 17.4848L26.4301 17.4841L26.4303 17.4824L26.4309 17.4774L26.4329 17.461C26.4344 17.4473 26.4366 17.4281 26.439 17.4037C26.4438 17.355 26.4499 17.2857 26.4555 17.1987C26.4666 17.0248 26.4757 16.7791 26.4684 16.4853C26.4539 15.9009 26.3741 15.1092 26.1052 14.3082C25.8358 13.5056 25.3695 12.6742 24.5707 12.0444C23.8584 11.4827 22.9144 11.1074 21.6848 11.0293H23.8849H24.3849V10.5293V8.85361V8.35361H23.8849H18.2704ZM19.4241 17.9206H22.9367L22.9599 18.3449C22.9599 18.3477 22.9597 18.3528 22.9593 18.3601C22.9583 18.3795 22.9552 18.4125 22.9467 18.4544C22.9296 18.5387 22.8921 18.652 22.8107 18.7654C22.6658 18.9673 22.2935 19.2889 21.2778 19.2889H21.261L21.2468 19.2899L21.246 19.29L21.246 19.29L21.2453 19.29L21.235 19.2904C21.2237 19.2907 21.2047 19.2911 21.1791 19.2909C21.1278 19.2905 21.0511 19.2876 20.9578 19.2774C20.7685 19.2568 20.5256 19.2077 20.2897 19.0989C20.057 18.9916 19.8378 18.8298 19.6746 18.5822C19.5675 18.4197 19.4747 18.2056 19.4241 17.9206ZM0.5 15C0.5 6.99215 6.99185 0.5 15 0.5C23.0081 0.5 29.5 6.99215 29.5 15C29.5 23.0079 23.0081 29.5 15 29.5C6.99185 29.5 0.5 23.0079 0.5 15Z" fill="#15528A"/>
<path d="M18.2704 8.35361H17.7704V8.85361V10.5293V11.0293H18.2704H20.7041C19.5441 11.1019 18.6222 11.4309 17.8959 11.915C17.0726 12.4637 16.5302 13.1917 16.1741 13.9046C15.8659 14.5216 15.6935 15.134 15.5966 15.6269C15.4271 15.2007 15.1667 14.7614 14.7637 14.4138C14.652 14.3175 14.5312 14.2298 14.4011 14.1523C14.9737 13.6933 15.4607 12.9199 15.4607 11.675C15.4607 10.3324 14.9873 9.28121 14.1699 8.57256C13.3629 7.87297 12.273 7.55197 11.11 7.55197H7.14905H7.03274H4.02905H3.52905V8.05197V21.6595V22.1595H4.02905H7.03274H7.14905H11.1045L11.1146 22.1597C11.1255 22.1599 11.1404 22.1601 11.159 22.1601C11.1964 22.16 11.2489 22.1594 11.3145 22.157C11.4455 22.1521 11.6297 22.1402 11.8494 22.1119C12.2863 22.0557 12.8778 21.9334 13.4763 21.6648C14.0764 21.3954 14.6962 20.9729 15.1652 20.3119C15.4401 19.9243 15.6552 19.4659 15.7869 18.9273C15.8546 19.1329 15.9365 19.3436 16.0354 19.555C16.3714 20.2728 16.9065 21.0027 17.7516 21.5507C18.5953 22.0978 19.7149 22.4421 21.1857 22.444L21.1895 22.4442C21.1946 22.4444 21.2005 22.4447 21.2074 22.4449C21.2155 22.4452 21.225 22.4456 21.2356 22.4459C21.2746 22.447 21.3299 22.4481 21.3993 22.4479C21.5377 22.4475 21.733 22.4424 21.9663 22.4232C22.4301 22.3853 23.0588 22.2911 23.6955 22.0619C24.3317 21.8328 24.9997 21.4601 25.5101 20.8505C26.0276 20.2324 26.3543 19.4046 26.3543 18.325V17.9206H26.3731L26.4299 17.4853L25.9341 17.4206C26.4299 17.4853 26.4299 17.4851 26.43 17.4848L26.4301 17.4841L26.4303 17.4824L26.4309 17.4774L26.4329 17.461C26.4344 17.4473 26.4366 17.4281 26.439 17.4037C26.4438 17.355 26.4499 17.2857 26.4555 17.1987C26.4666 17.0248 26.4757 16.7791 26.4684 16.4853C26.4539 15.9009 26.3741 15.1092 26.1052 14.3082C25.8358 13.5056 25.3695 12.6742 24.5707 12.0444C23.8584 11.4827 22.9144 11.1074 21.6848 11.0293H23.8849H24.3849V10.5293V8.85361V8.35361H23.8849H18.2704ZM19.4241 17.9206H22.9367L22.9599 18.3449C22.9599 18.3477 22.9597 18.3528 22.9593 18.3601C22.9583 18.3795 22.9552 18.4125 22.9467 18.4544C22.9296 18.5387 22.8921 18.652 22.8107 18.7654C22.6658 18.9673 22.2935 19.2889 21.2778 19.2889H21.261L21.2468 19.2899L21.246 19.29L21.246 19.29L21.2453 19.29L21.235 19.2904C21.2237 19.2907 21.2047 19.2911 21.1791 19.2909C21.1278 19.2905 21.0511 19.2876 20.9578 19.2774C20.7685 19.2568 20.5256 19.2077 20.2897 19.0989C20.057 18.9916 19.8378 18.8298 19.6746 18.5822C19.5675 18.4197 19.4747 18.2056 19.4241 17.9206ZM0.5 15C0.5 6.99215 6.99185 0.5 15 0.5C23.0081 0.5 29.5 6.99215 29.5 15C29.5 23.0079 23.0081 29.5 15 29.5C6.99185 29.5 0.5 23.0079 0.5 15Z" stroke="#15528A"/>
<path d="M18.2704 8.35361H17.7704V8.85361V10.5293V11.0293H18.2704H20.7041C19.5441 11.1019 18.6222 11.4309 17.8959 11.915C17.0726 12.4637 16.5302 13.1917 16.1741 13.9046C15.8659 14.5216 15.6935 15.134 15.5966 15.6269C15.4271 15.2007 15.1667 14.7614 14.7637 14.4138C14.652 14.3175 14.5312 14.2298 14.4011 14.1523C14.9737 13.6933 15.4607 12.9199 15.4607 11.675C15.4607 10.3324 14.9873 9.28121 14.1699 8.57256C13.3629 7.87297 12.273 7.55197 11.11 7.55197H7.14905H7.03274H4.02905H3.52905V8.05197V21.6595V22.1595H4.02905H7.03274H7.14905H11.1045L11.1146 22.1597C11.1255 22.1599 11.1404 22.1601 11.159 22.1601C11.1964 22.16 11.2489 22.1594 11.3145 22.157C11.4455 22.1521 11.6297 22.1402 11.8494 22.1119C12.2863 22.0557 12.8778 21.9334 13.4763 21.6648C14.0764 21.3954 14.6962 20.9729 15.1652 20.3119C15.4401 19.9243 15.6552 19.4659 15.7869 18.9273C15.8546 19.1329 15.9365 19.3436 16.0354 19.555C16.3714 20.2728 16.9065 21.0027 17.7516 21.5507C18.5953 22.0978 19.7149 22.4421 21.1857 22.444L21.1895 22.4442C21.1946 22.4444 21.2005 22.4447 21.2074 22.4449C21.2155 22.4452 21.225 22.4456 21.2356 22.4459C21.2746 22.447 21.3299 22.4481 21.3993 22.4479C21.5377 22.4475 21.733 22.4424 21.9663 22.4232C22.4301 22.3853 23.0588 22.2911 23.6955 22.0619C24.3317 21.8328 24.9997 21.4601 25.5101 20.8505C26.0276 20.2324 26.3543 19.4046 26.3543 18.325V17.9206H26.3731L26.4299 17.4853L25.9341 17.4206C26.4299 17.4853 26.4299 17.4851 26.43 17.4848L26.4301 17.4841L26.4303 17.4824L26.4309 17.4774L26.4329 17.461C26.4344 17.4473 26.4366 17.4281 26.439 17.4037C26.4438 17.355 26.4499 17.2857 26.4555 17.1987C26.4666 17.0248 26.4757 16.7791 26.4684 16.4853C26.4539 15.9009 26.3741 15.1092 26.1052 14.3082C25.8358 13.5056 25.3695 12.6742 24.5707 12.0444C23.8584 11.4827 22.9144 11.1074 21.6848 11.0293H23.8849H24.3849V10.5293V8.85361V8.35361H23.8849H18.2704ZM19.4241 17.9206H22.9367L22.9599 18.3449C22.9599 18.3477 22.9597 18.3528 22.9593 18.3601C22.9583 18.3795 22.9552 18.4125 22.9467 18.4544C22.9296 18.5387 22.8921 18.652 22.8107 18.7654C22.6658 18.9673 22.2935 19.2889 21.2778 19.2889H21.261L21.2468 19.2899L21.246 19.29L21.246 19.29L21.2453 19.29L21.235 19.2904C21.2237 19.2907 21.2047 19.2911 21.1791 19.2909C21.1278 19.2905 21.0511 19.2876 20.9578 19.2774C20.7685 19.2568 20.5256 19.2077 20.2897 19.0989C20.057 18.9916 19.8378 18.8298 19.6746 18.5822C19.5675 18.4197 19.4747 18.2056 19.4241 17.9206ZM0.5 15C0.5 6.99215 6.99185 0.5 15 0.5C23.0081 0.5 29.5 6.99215 29.5 15C29.5 23.0079 23.0081 29.5 15 29.5C6.99185 29.5 0.5 23.0079 0.5 15Z" stroke="url(#paint3_linear)"/>
<defs>
<linearGradient id="paint0_linear" x1="9.61077" y1="10.4727" x2="9.61077" y2="13.5092" gradientUnits="userSpaceOnUse">
<stop stop-color="#15528A"/>
<stop offset="1" stop-color="white" stop-opacity="0"/>
</linearGradient>
<linearGradient id="paint1_linear" x1="9.84678" y1="15.6051" x2="9.84678" y2="19.2419" gradientUnits="userSpaceOnUse">
<stop stop-color="#15528A"/>
<stop offset="1" stop-color="white" stop-opacity="0"/>
</linearGradient>
<linearGradient id="paint2_linear" x1="21.0911" y1="13.5068" x2="21.0911" y2="15.6045" gradientUnits="userSpaceOnUse">
<stop stop-color="#15528A"/>
<stop offset="1" stop-color="white" stop-opacity="0"/>
</linearGradient>
<linearGradient id="paint3_linear" x1="15" y1="0" x2="15" y2="30" gradientUnits="userSpaceOnUse">
<stop stop-color="#15528A"/>
<stop offset="1" stop-color="white" stop-opacity="0"/>
</linearGradient>
</defs>
</svg>
