<svg width="52" height="60" viewBox="0 0 52 60" fill="none" xmlns="http://www.w3.org/2000/svg">
<path d="M50.0727 0H1.92497C0.771652 0 -0.0936208 0.975944 0.00813168 2.12914L4.40585 51.4106C4.50773 52.5629 5.5044 53.769 6.62229 54.0804L23.9587 58.8961C25.075 59.2055 26.8998 59.2075 28.0178 58.9001L45.3757 54.0912C46.4938 53.7807 47.4905 52.5856 47.5922 51.4312L51.9918 2.12914C52.0936 0.975944 51.232 0 50.0727 0ZM41.7226 17.7892C41.7219 17.7968 41.716 17.8027 41.7086 17.8039C41.701 17.8052 41.6937 17.8013 41.6905 17.7942L28.1079 23.3604C27.9144 23.4396 27.8041 23.6448 27.8443 23.8499C27.8848 24.055 28.0647 24.203 28.2738 24.203H38.8389C39.4009 24.203 39.9363 24.4417 40.3122 24.8596C40.6879 25.2776 40.8685 25.8355 40.8089 26.3942L39.1581 41.8798C39.0771 42.6396 38.5665 43.285 37.8457 43.5386L26.6317 47.4844C26.2094 47.6331 25.749 47.6342 25.3257 47.4875L14.164 43.6212C13.4388 43.3699 12.924 42.7226 12.8425 41.9595L12.0942 34.9463C12.0549 34.5781 12.1738 34.2106 12.4213 33.9353C12.6689 33.66 13.0216 33.5027 13.392 33.5027H16.4979C17.1654 33.5027 17.7251 34.0061 17.7957 34.6696L18.2549 38.9804L25.9832 41.6668L33.7469 38.9559L34.6964 30.0155H12.7452C12.0797 30.0155 11.5209 29.5149 11.4479 28.8535L11.0299 25.0643C10.9661 24.4863 11.2922 23.936 11.8296 23.7145L25.8786 17.9223C26.038 17.8566 26.1286 17.6876 26.0952 17.5185C26.0617 17.3496 25.9136 17.2278 25.7413 17.2278H10.9497C10.5043 17.2278 10.1309 16.8915 10.0844 16.4489L9.65653 12.3761C9.63078 12.131 9.71029 11.8864 9.87523 11.7032C10.0402 11.52 10.2752 11.4154 10.5217 11.4154H41.4719C41.7197 11.4154 41.9558 11.5211 42.1208 11.7059C42.2859 11.8908 42.3643 12.1373 42.3363 12.3835L41.7226 17.7892Z" fill="#E5E5E5"/>
</svg>
