<svg width="45" height="68" viewBox="0 0 45 68" fill="none" xmlns="http://www.w3.org/2000/svg">
<g clip-path="url(#clip0)">
<path d="M11.2522 67.4865C17.461 67.4865 22.5 62.4475 22.5 56.2387V44.991H11.2522C5.04348 44.991 0.00448608 50.03 0.00448608 56.2387C0.00448608 62.4475 5.04348 67.4865 11.2522 67.4865Z" fill="#E5E5E5"/>
<path d="M0.00448608 33.7432C0.00448608 27.5345 5.04348 22.4955 11.2522 22.4955H22.5V44.9909H11.2522C5.04348 44.9909 0.00448608 39.952 0.00448608 33.7432Z" fill="#D5D8DB"/>
<path d="M0.0223083 11.2477C0.0223083 5.03899 5.0613 0 11.2701 0H22.5178V22.4955H11.2701C5.0613 22.4955 0.0223083 17.4565 0.0223083 11.2477Z" fill="#E5E5E5"/>
<path d="M22.5 0H33.7478C39.9566 0 44.9956 5.03899 44.9956 11.2477C44.9956 17.4565 39.9566 22.4955 33.7478 22.4955H22.5V0Z" fill="#D5D8DB"/>
<path d="M44.9956 33.7432C44.9956 39.952 39.9566 44.9909 33.7478 44.9909C27.539 44.9909 22.5 39.952 22.5 33.7432C22.5 27.5345 27.539 22.4955 33.7478 22.4955C39.9566 22.4955 44.9956 27.5345 44.9956 33.7432Z" fill="#F2F2F2"/>
</g>
<defs>
<clipPath id="clip0">
<rect width="45" height="67.4864" fill="white"/>
</clipPath>
</defs>
</svg>
