<svg width="30" height="30" viewBox="0 0 30 30" fill="none" xmlns="http://www.w3.org/2000/svg">
<path d="M6.85191 25.7778C7.64397 26.4383 8.88907 26.934 10.7672 26.6609C10.7705 27.0902 10.7742 27.468 10.7772 27.7813C10.781 28.1693 10.7838 28.4584 10.7838 28.6237C10.7838 28.7205 10.7496 28.7883 10.7151 28.8199C10.6967 28.8368 10.6189 28.9004 10.3828 28.8632C4.6376 26.9259 0.5 21.4787 0.5 15.06C0.5 7.01673 6.9943 0.5 14.9981 0.5C23.0058 0.5 29.5 7.01681 29.5 15.06C29.5 21.4778 25.3648 26.9238 19.6277 28.8621C19.383 28.9036 19.3058 28.8383 19.2898 28.8237C19.2571 28.7937 19.2219 28.7258 19.2219 28.6237C19.2219 28.4623 19.2239 28.1784 19.2266 27.7962C19.228 27.5997 19.2296 27.3771 19.2312 27.1319C19.2359 26.4121 19.2406 25.5015 19.2406 24.4931C19.2406 23.4895 19.0127 22.6808 18.6635 22.0805C20.0953 21.8434 21.5536 21.3829 22.721 20.4016C24.155 19.1961 25.07 17.2752 25.07 14.2744C25.07 12.6175 24.521 11.2305 23.5972 10.123C23.8114 9.43386 24.0872 7.94975 23.3439 6.06412L23.2572 5.84404L23.032 5.77155L22.8787 6.2475C23.032 5.77155 23.0315 5.77139 23.031 5.77123L23.03 5.77091L23.0279 5.77025L23.0233 5.76884L23.0127 5.76572C23.005 5.76351 22.996 5.76108 22.9858 5.75849C22.9652 5.75332 22.9395 5.74758 22.9085 5.74196C22.8466 5.7307 22.7641 5.71998 22.6605 5.71519C22.4531 5.70559 22.1638 5.71989 21.7883 5.79934C21.0711 5.95109 20.0433 6.33951 18.6682 7.2485C17.4882 6.94055 16.2394 6.78978 15.0048 6.7825V6.78248L14.9997 6.7825C13.7607 6.78796 12.5133 6.94043 11.3357 7.2468C9.95947 6.33763 8.9307 5.94918 8.21277 5.79744C7.83693 5.71801 7.54738 5.70372 7.3398 5.71331C7.23618 5.7181 7.15365 5.72881 7.09169 5.74006C7.06074 5.74568 7.03501 5.75141 7.01443 5.75658C7.00415 5.75916 6.99516 5.76159 6.98746 5.76379L6.97689 5.76691L6.97232 5.76831L6.97023 5.76897L6.96922 5.76929C6.96873 5.76945 6.96825 5.76961 7.12125 6.24562L6.96825 5.76961L6.74276 5.84208L6.656 6.06247C5.91451 7.94602 6.19015 9.43124 6.4061 10.122C5.48445 11.2284 4.93 12.6148 4.93 14.2725C4.93 17.2661 5.8442 19.1872 7.27477 20.3961C8.44126 21.3819 9.89859 21.8476 11.3284 22.0884C11.123 22.4446 10.9604 22.8736 10.8626 23.3726C10.4671 23.5225 9.9197 23.6633 9.35266 23.6124C8.69396 23.5533 7.96315 23.234 7.37743 22.2297L7.37642 22.2279L7.36627 22.2102C7.35789 22.1957 7.34628 22.1762 7.33143 22.1522C7.30177 22.1042 7.25901 22.0382 7.20324 21.9599C7.09217 21.8039 6.92691 21.5955 6.70758 21.3826C6.27242 20.9601 5.59327 20.4909 4.68165 20.4262L4.66717 20.4252L4.65265 20.425L4.64625 20.925C4.65265 20.425 4.65249 20.425 4.65233 20.425L4.65197 20.425L4.65115 20.425L4.64909 20.425L4.64337 20.425L4.62578 20.425C4.61147 20.4251 4.59199 20.4255 4.56846 20.4263C4.52186 20.4279 4.45709 20.4316 4.38376 20.4397C4.25705 20.4537 4.02863 20.4882 3.83605 20.5984C3.73427 20.6567 3.59678 20.762 3.51909 20.9416C3.43482 21.1365 3.45661 21.3344 3.52475 21.4967C3.64042 21.7721 3.91726 22.016 4.26243 22.2525L4.29568 22.2753L4.32736 22.2902C4.32962 22.2913 4.33439 22.2939 4.34147 22.2979C4.35801 22.3073 4.38718 22.3248 4.42659 22.3518C4.50535 22.4059 4.62535 22.4983 4.76759 22.6415C5.04913 22.9248 5.42469 23.4136 5.73879 24.2111C5.74156 24.2195 5.74505 24.2298 5.74928 24.2418C5.75946 24.2707 5.77405 24.3099 5.79368 24.3576C5.83288 24.4528 5.89257 24.5828 5.97806 24.7334C6.14866 25.0339 6.42529 25.4221 6.85191 25.7778Z" fill="#15528A"/>
<path d="M6.85191 25.7778C7.64397 26.4383 8.88907 26.934 10.7672 26.6609C10.7705 27.0902 10.7742 27.468 10.7772 27.7813C10.781 28.1693 10.7838 28.4584 10.7838 28.6237C10.7838 28.7205 10.7496 28.7883 10.7151 28.8199C10.6967 28.8368 10.6189 28.9004 10.3828 28.8632C4.6376 26.9259 0.5 21.4787 0.5 15.06C0.5 7.01673 6.9943 0.5 14.9981 0.5C23.0058 0.5 29.5 7.01681 29.5 15.06C29.5 21.4778 25.3648 26.9238 19.6277 28.8621C19.383 28.9036 19.3058 28.8383 19.2898 28.8237C19.2571 28.7937 19.2219 28.7258 19.2219 28.6237C19.2219 28.4623 19.2239 28.1784 19.2266 27.7962C19.228 27.5997 19.2296 27.3771 19.2312 27.1319C19.2359 26.4121 19.2406 25.5015 19.2406 24.4931C19.2406 23.4895 19.0127 22.6808 18.6635 22.0805C20.0953 21.8434 21.5536 21.3829 22.721 20.4016C24.155 19.1961 25.07 17.2752 25.07 14.2744C25.07 12.6175 24.521 11.2305 23.5972 10.123C23.8114 9.43386 24.0872 7.94975 23.3439 6.06412L23.2572 5.84404L23.032 5.77155L22.8787 6.2475C23.032 5.77155 23.0315 5.77139 23.031 5.77123L23.03 5.77091L23.0279 5.77025L23.0233 5.76884L23.0127 5.76572C23.005 5.76351 22.996 5.76108 22.9858 5.75849C22.9652 5.75332 22.9395 5.74758 22.9085 5.74196C22.8466 5.7307 22.7641 5.71998 22.6605 5.71519C22.4531 5.70559 22.1638 5.71989 21.7883 5.79934C21.0711 5.95109 20.0433 6.33951 18.6682 7.2485C17.4882 6.94055 16.2394 6.78978 15.0048 6.7825V6.78248L14.9997 6.7825C13.7607 6.78796 12.5133 6.94043 11.3357 7.2468C9.95947 6.33763 8.9307 5.94918 8.21277 5.79744C7.83693 5.71801 7.54738 5.70372 7.3398 5.71331C7.23618 5.7181 7.15365 5.72881 7.09169 5.74006C7.06074 5.74568 7.03501 5.75141 7.01443 5.75658C7.00415 5.75916 6.99516 5.76159 6.98746 5.76379L6.97689 5.76691L6.97232 5.76831L6.97023 5.76897L6.96922 5.76929C6.96873 5.76945 6.96825 5.76961 7.12125 6.24562L6.96825 5.76961L6.74276 5.84208L6.656 6.06247C5.91451 7.94602 6.19015 9.43124 6.4061 10.122C5.48445 11.2284 4.93 12.6148 4.93 14.2725C4.93 17.2661 5.8442 19.1872 7.27477 20.3961C8.44126 21.3819 9.89859 21.8476 11.3284 22.0884C11.123 22.4446 10.9604 22.8736 10.8626 23.3726C10.4671 23.5225 9.9197 23.6633 9.35266 23.6124C8.69396 23.5533 7.96315 23.234 7.37743 22.2297L7.37642 22.2279L7.36627 22.2102C7.35789 22.1957 7.34628 22.1762 7.33143 22.1522C7.30177 22.1042 7.25901 22.0382 7.20324 21.9599C7.09217 21.8039 6.92691 21.5955 6.70758 21.3826C6.27242 20.9601 5.59327 20.4909 4.68165 20.4262L4.66717 20.4252L4.65265 20.425L4.64625 20.925C4.65265 20.425 4.65249 20.425 4.65233 20.425L4.65197 20.425L4.65115 20.425L4.64909 20.425L4.64337 20.425L4.62578 20.425C4.61147 20.4251 4.59199 20.4255 4.56846 20.4263C4.52186 20.4279 4.45709 20.4316 4.38376 20.4397C4.25705 20.4537 4.02863 20.4882 3.83605 20.5984C3.73427 20.6567 3.59678 20.762 3.51909 20.9416C3.43482 21.1365 3.45661 21.3344 3.52475 21.4967C3.64042 21.7721 3.91726 22.016 4.26243 22.2525L4.29568 22.2753L4.32736 22.2902C4.32962 22.2913 4.33439 22.2939 4.34147 22.2979C4.35801 22.3073 4.38718 22.3248 4.42659 22.3518C4.50535 22.4059 4.62535 22.4983 4.76759 22.6415C5.04913 22.9248 5.42469 23.4136 5.73879 24.2111C5.74156 24.2195 5.74505 24.2298 5.74928 24.2418C5.75946 24.2707 5.77405 24.3099 5.79368 24.3576C5.83288 24.4528 5.89257 24.5828 5.97806 24.7334C6.14866 25.0339 6.42529 25.4221 6.85191 25.7778Z" stroke="#15528A"/>
<path d="M6.85191 25.7778C7.64397 26.4383 8.88907 26.934 10.7672 26.6609C10.7705 27.0902 10.7742 27.468 10.7772 27.7813C10.781 28.1693 10.7838 28.4584 10.7838 28.6237C10.7838 28.7205 10.7496 28.7883 10.7151 28.8199C10.6967 28.8368 10.6189 28.9004 10.3828 28.8632C4.6376 26.9259 0.5 21.4787 0.5 15.06C0.5 7.01673 6.9943 0.5 14.9981 0.5C23.0058 0.5 29.5 7.01681 29.5 15.06C29.5 21.4778 25.3648 26.9238 19.6277 28.8621C19.383 28.9036 19.3058 28.8383 19.2898 28.8237C19.2571 28.7937 19.2219 28.7258 19.2219 28.6237C19.2219 28.4623 19.2239 28.1784 19.2266 27.7962C19.228 27.5997 19.2296 27.3771 19.2312 27.1319C19.2359 26.4121 19.2406 25.5015 19.2406 24.4931C19.2406 23.4895 19.0127 22.6808 18.6635 22.0805C20.0953 21.8434 21.5536 21.3829 22.721 20.4016C24.155 19.1961 25.07 17.2752 25.07 14.2744C25.07 12.6175 24.521 11.2305 23.5972 10.123C23.8114 9.43386 24.0872 7.94975 23.3439 6.06412L23.2572 5.84404L23.032 5.77155L22.8787 6.2475C23.032 5.77155 23.0315 5.77139 23.031 5.77123L23.03 5.77091L23.0279 5.77025L23.0233 5.76884L23.0127 5.76572C23.005 5.76351 22.996 5.76108 22.9858 5.75849C22.9652 5.75332 22.9395 5.74758 22.9085 5.74196C22.8466 5.7307 22.7641 5.71998 22.6605 5.71519C22.4531 5.70559 22.1638 5.71989 21.7883 5.79934C21.0711 5.95109 20.0433 6.33951 18.6682 7.2485C17.4882 6.94055 16.2394 6.78978 15.0048 6.7825V6.78248L14.9997 6.7825C13.7607 6.78796 12.5133 6.94043 11.3357 7.2468C9.95947 6.33763 8.9307 5.94918 8.21277 5.79744C7.83693 5.71801 7.54738 5.70372 7.3398 5.71331C7.23618 5.7181 7.15365 5.72881 7.09169 5.74006C7.06074 5.74568 7.03501 5.75141 7.01443 5.75658C7.00415 5.75916 6.99516 5.76159 6.98746 5.76379L6.97689 5.76691L6.97232 5.76831L6.97023 5.76897L6.96922 5.76929C6.96873 5.76945 6.96825 5.76961 7.12125 6.24562L6.96825 5.76961L6.74276 5.84208L6.656 6.06247C5.91451 7.94602 6.19015 9.43124 6.4061 10.122C5.48445 11.2284 4.93 12.6148 4.93 14.2725C4.93 17.2661 5.8442 19.1872 7.27477 20.3961C8.44126 21.3819 9.89859 21.8476 11.3284 22.0884C11.123 22.4446 10.9604 22.8736 10.8626 23.3726C10.4671 23.5225 9.9197 23.6633 9.35266 23.6124C8.69396 23.5533 7.96315 23.234 7.37743 22.2297L7.37642 22.2279L7.36627 22.2102C7.35789 22.1957 7.34628 22.1762 7.33143 22.1522C7.30177 22.1042 7.25901 22.0382 7.20324 21.9599C7.09217 21.8039 6.92691 21.5955 6.70758 21.3826C6.27242 20.9601 5.59327 20.4909 4.68165 20.4262L4.66717 20.4252L4.65265 20.425L4.64625 20.925C4.65265 20.425 4.65249 20.425 4.65233 20.425L4.65197 20.425L4.65115 20.425L4.64909 20.425L4.64337 20.425L4.62578 20.425C4.61147 20.4251 4.59199 20.4255 4.56846 20.4263C4.52186 20.4279 4.45709 20.4316 4.38376 20.4397C4.25705 20.4537 4.02863 20.4882 3.83605 20.5984C3.73427 20.6567 3.59678 20.762 3.51909 20.9416C3.43482 21.1365 3.45661 21.3344 3.52475 21.4967C3.64042 21.7721 3.91726 22.016 4.26243 22.2525L4.29568 22.2753L4.32736 22.2902C4.32962 22.2913 4.33439 22.2939 4.34147 22.2979C4.35801 22.3073 4.38718 22.3248 4.42659 22.3518C4.50535 22.4059 4.62535 22.4983 4.76759 22.6415C5.04913 22.9248 5.42469 23.4136 5.73879 24.2111C5.74156 24.2195 5.74505 24.2298 5.74928 24.2418C5.75946 24.2707 5.77405 24.3099 5.79368 24.3576C5.83288 24.4528 5.89257 24.5828 5.97806 24.7334C6.14866 25.0339 6.42529 25.4221 6.85191 25.7778Z" stroke="url(#paint0_linear)"/>
<defs>
<linearGradient id="paint0_linear" x1="15" y1="0" x2="15" y2="29.3755" gradientUnits="userSpaceOnUse">
<stop stop-color="#15528A"/>
<stop offset="1" stop-color="white" stop-opacity="0"/>
</linearGradient>
</defs>
</svg>
