<svg width="52" height="60" viewBox="0 0 52 60" fill="none" xmlns="http://www.w3.org/2000/svg">
<path d="M0.90221 0C0.359865 0 -0.0442317 0.441962 0.00388908 0.982138L4.57615 52.2677C4.62428 52.8078 5.09109 53.3685 5.61391 53.5137L25.0163 58.9008C25.5389 59.046 26.394 59.046 26.9168 58.9012L46.3781 53.5052C46.9008 53.3602 47.3682 52.7996 47.4163 52.2596L51.9961 0.982138C52.0446 0.441962 51.6401 0 51.0977 0H0.90221ZM42.2589 11.7622C42.2157 12.244 42.1409 13.0804 42.0928 13.6206L41.9723 14.9662C41.9238 15.5061 41.8548 16.2784 41.8183 16.6821C41.782 17.086 41.7475 17.4164 41.7412 17.4164C41.7351 17.4164 41.2862 17.4164 40.7439 17.4164H26.9861C26.4437 17.4164 25.9954 17.4164 25.9895 17.4164C25.9836 17.4164 25.5349 17.4164 24.9926 17.4164H17.7469C17.2045 17.4164 16.8004 17.8583 16.8485 18.3985L17.2712 23.1228C17.3193 23.6628 17.8027 24.105 18.345 24.105H24.9928C25.5351 24.105 25.9838 24.105 25.9897 24.105C25.9956 24.105 26.4439 24.105 26.9862 24.105H38.4128C38.9551 24.105 39.7945 24.105 40.2778 24.105C40.7608 24.105 41.1206 24.4992 41.0768 24.981C41.0328 25.4628 40.9577 26.2994 40.9095 26.8394L39.5505 42.07C39.502 42.6102 39.4407 43.3002 39.4142 43.6035C39.3872 43.9067 38.9378 44.2733 38.4151 44.4183L26.9504 47.5972C26.4277 47.7419 25.9935 47.8618 25.9854 47.8636C25.9773 47.8654 25.5432 47.7481 25.0204 47.6031L13.5434 44.4184C13.0208 44.2735 12.5538 43.7128 12.5056 43.1726L11.7669 34.8807C11.7187 34.3405 12.1232 33.8985 12.6656 33.8985H13.713C14.2553 33.8985 15.1428 33.8985 15.6852 33.8985H17.2471C17.7895 33.8985 18.2724 34.3405 18.321 34.8807L18.6107 38.1267C18.6588 38.6668 19.1264 39.2244 19.6502 39.3658L25.0186 40.8155C25.542 40.9569 25.9724 41.0727 25.9747 41.0727C25.9771 41.0727 26.4072 40.9567 26.9308 40.8153L32.3089 39.362C32.8323 39.2206 33.3003 38.6629 33.3488 38.1229L33.932 31.6195C33.9805 31.0793 33.5764 30.6374 33.0341 30.6374H26.9862C26.4439 30.6374 25.9956 30.6374 25.9897 30.6374C25.9838 30.6374 25.5351 30.6374 24.9928 30.6374H12.3731C11.8308 30.6374 11.3478 30.1952 11.2997 29.6552L9.86865 13.6204C9.82053 13.0802 9.74579 12.244 9.7026 11.762C9.6598 11.2802 10.0682 10.8859 10.6106 10.8859H24.9928C25.5351 10.8859 25.9838 10.8859 25.9897 10.8859C25.9956 10.8859 26.4439 10.8859 26.9862 10.8859H41.3511C41.8932 10.8859 42.3019 11.2802 42.2589 11.7622Z" fill="#D5D8DB"/>
</svg>
