<svg width="45" height="58" viewBox="0 0 45 58" fill="none" xmlns="http://www.w3.org/2000/svg">
<path d="M0 41V56C0 57.009 1.22 58 2.463 58H42.537C43.78 58 45 57.009 45 56V41H0ZM20.521 51.566C20.521 52.04 20.434 52.439 20.261 52.762C20.087 53.085 19.855 53.345 19.564 53.541C19.272 53.737 18.937 53.874 18.559 53.951C18.181 54.028 17.79 54.067 17.39 54.067C17.189 54.067 16.954 54.046 16.686 54.005C16.418 53.964 16.139 53.901 15.852 53.814C15.565 53.727 15.289 53.629 15.025 53.52C14.76 53.411 14.537 53.288 14.355 53.151L15.052 52.044C15.143 52.107 15.273 52.174 15.442 52.242C15.611 52.31 15.795 52.374 15.996 52.433C16.196 52.493 16.406 52.544 16.625 52.59C16.844 52.636 17.049 52.658 17.24 52.658C17.722 52.658 18.108 52.564 18.395 52.378C18.682 52.192 18.834 51.874 18.853 51.428V43.717H20.521V51.566ZM28.458 52.298C28.308 52.64 28.096 52.941 27.822 53.2C27.548 53.459 27.211 53.667 26.81 53.822C26.409 53.977 25.953 54.054 25.443 54.054C25.224 54.054 24.999 54.042 24.766 54.02C24.533 53.998 24.298 53.958 24.062 53.904C23.825 53.849 23.599 53.774 23.385 53.678C23.171 53.582 22.986 53.466 22.831 53.329L23.118 52.153C23.245 52.226 23.407 52.297 23.603 52.365C23.799 52.433 24.001 52.497 24.211 52.556C24.42 52.616 24.63 52.663 24.84 52.7C25.049 52.736 25.245 52.755 25.428 52.755C25.984 52.755 26.41 52.625 26.706 52.365C27.002 52.105 27.15 51.72 27.15 51.21C27.15 50.9 27.045 50.636 26.836 50.417C26.626 50.198 26.364 50 26.05 49.822C25.736 49.644 25.396 49.467 25.031 49.289C24.666 49.111 24.324 48.901 24.006 48.66C23.687 48.419 23.422 48.134 23.213 47.806C23.003 47.478 22.899 47.068 22.899 46.576C22.899 46.13 22.981 45.733 23.145 45.387C23.309 45.041 23.53 44.746 23.808 44.505C24.086 44.264 24.41 44.079 24.779 43.951C25.148 43.823 25.538 43.76 25.948 43.76C26.367 43.76 26.791 43.799 27.219 43.876C27.647 43.953 27.993 44.079 28.258 44.252C28.203 44.37 28.139 44.5 28.067 44.642C27.994 44.784 27.925 44.915 27.862 45.038C27.798 45.161 27.743 45.264 27.698 45.346C27.652 45.428 27.625 45.474 27.616 45.483C27.561 45.456 27.5 45.42 27.431 45.374C27.362 45.328 27.264 45.283 27.137 45.237C27.009 45.191 26.84 45.16 26.631 45.141C26.421 45.122 26.152 45.127 25.824 45.155C25.641 45.174 25.469 45.225 25.304 45.312C25.139 45.399 24.993 45.505 24.866 45.633C24.738 45.761 24.637 45.904 24.565 46.064C24.492 46.223 24.456 46.377 24.456 46.522C24.456 46.886 24.56 47.18 24.77 47.404C24.979 47.628 25.239 47.823 25.549 47.992C25.859 48.161 26.195 48.325 26.561 48.484C26.925 48.643 27.265 48.838 27.58 49.065C27.895 49.292 28.156 49.578 28.366 49.919C28.575 50.261 28.68 50.7 28.68 51.238C28.684 51.603 28.608 51.956 28.458 52.298Z" fill="#F2F2F2"/>
<path d="M45 39V13.978C45 13.212 44.908 12.645 44.45 12.186L32.813 0.55C32.464 0.201 31.98 0 31.485 0H2.463C1.277 0 0 0.916 0 2.926V39H45ZM23 32C23 32.552 22.553 33 22 33C21.447 33 21 32.552 21 32V29C21 28.448 21.447 28 22 28C22.553 28 23 28.448 23 29V32ZM31 3.391C31 2.933 31.553 2.704 31.877 3.028L41.972 13.123C42.296 13.447 42.067 14 41.609 14H31V3.391ZM30 23V19C30 18.449 29.552 18 29 18C28.447 18 28 17.552 28 17C28 16.448 28.447 16 29 16C30.654 16 32 17.346 32 19V23C32 24.103 32.897 25 34 25C34.553 25 35 25.448 35 26C35 26.552 34.553 27 34 27C32.897 27 32 27.897 32 29V33C32 34.654 30.654 36 29 36C28.447 36 28 35.552 28 35C28 34.448 28.447 34 29 34C29.552 34 30 33.551 30 33V29C30 27.8 30.542 26.734 31.382 26C30.542 25.266 30 24.2 30 23ZM22 21C22.828 21 23.5 21.672 23.5 22.5C23.5 23.328 22.828 24 22 24C21.172 24 20.5 23.328 20.5 22.5C20.5 21.672 21.172 21 22 21ZM10 25C11.103 25 12 24.103 12 23V19C12 17.346 13.346 16 15 16C15.553 16 16 16.448 16 17C16 17.552 15.553 18 15 18C14.448 18 14 18.449 14 19V23C14 24.2 13.458 25.266 12.618 26C13.458 26.734 14 27.8 14 29V33C14 33.551 14.448 34 15 34C15.553 34 16 34.448 16 35C16 35.552 15.553 36 15 36C13.346 36 12 34.654 12 33V29C12 27.897 11.103 27 10 27C9.447 27 9 26.552 9 26C9 25.448 9.447 25 10 25Z" fill="#F2F2F2"/>
</svg>
