<svg width="30" height="30" viewBox="0 0 30 30" fill="none" xmlns="http://www.w3.org/2000/svg">
<path d="M9.37964 25.6558H9.87964V25.1558V11.5881V11.0881H9.37964H5.16276H4.66276V11.5881V25.1558V25.1682C2.08829 22.5512 0.5 18.9611 0.5 15C0.5 6.99185 6.99185 0.5 15 0.5C23.0082 0.5 29.5 6.99185 29.5 15C29.5 18.7857 28.0492 22.2326 25.6733 24.815V17.714C25.6733 15.8764 25.4806 14.1341 24.6684 12.8458C23.8229 11.5047 22.3734 10.7508 20.1152 10.7508C18.5862 10.7508 17.384 11.3233 16.5686 12.0747V11.5881V11.0881H16.0686H12.0242H11.5242V11.5881V25.1555V25.6555H12.0242H16.2374H16.7374V25.1555V18.4438C16.7374 17.5684 16.8256 16.81 17.118 16.2801C17.2578 16.0268 17.442 15.8303 17.6895 15.6932C17.9399 15.5546 18.2847 15.4604 18.7679 15.4604C19.2287 15.4604 19.5303 15.5672 19.7365 15.7111C19.9437 15.8559 20.0975 16.0682 20.2099 16.3527C20.4461 16.9505 20.4598 17.7487 20.4598 18.5576V25.1558V25.6558H20.9598H24.8339C22.2495 28.0421 18.795 29.5 15 29.5C11.205 29.5 7.75051 28.0421 5.16607 25.6558H9.37964ZM4.32639 7.28797V7.28808C4.32639 8.91383 5.64421 10.2335 7.27212 10.2335C8.89605 10.2335 10.2157 8.91414 10.2157 7.28808C10.2157 5.66348 8.89627 4.34389 7.27212 4.34389C5.64427 4.34389 4.32676 5.66348 4.32639 7.28797Z" fill="#15528A"/>
<path d="M9.37964 25.6558H9.87964V25.1558V11.5881V11.0881H9.37964H5.16276H4.66276V11.5881V25.1558V25.1682C2.08829 22.5512 0.5 18.9611 0.5 15C0.5 6.99185 6.99185 0.5 15 0.5C23.0082 0.5 29.5 6.99185 29.5 15C29.5 18.7857 28.0492 22.2326 25.6733 24.815V17.714C25.6733 15.8764 25.4806 14.1341 24.6684 12.8458C23.8229 11.5047 22.3734 10.7508 20.1152 10.7508C18.5862 10.7508 17.384 11.3233 16.5686 12.0747V11.5881V11.0881H16.0686H12.0242H11.5242V11.5881V25.1555V25.6555H12.0242H16.2374H16.7374V25.1555V18.4438C16.7374 17.5684 16.8256 16.81 17.118 16.2801C17.2578 16.0268 17.442 15.8303 17.6895 15.6932C17.9399 15.5546 18.2847 15.4604 18.7679 15.4604C19.2287 15.4604 19.5303 15.5672 19.7365 15.7111C19.9437 15.8559 20.0975 16.0682 20.2099 16.3527C20.4461 16.9505 20.4598 17.7487 20.4598 18.5576V25.1558V25.6558H20.9598H24.8339C22.2495 28.0421 18.795 29.5 15 29.5C11.205 29.5 7.75051 28.0421 5.16607 25.6558H9.37964ZM4.32639 7.28797V7.28808C4.32639 8.91383 5.64421 10.2335 7.27212 10.2335C8.89605 10.2335 10.2157 8.91414 10.2157 7.28808C10.2157 5.66348 8.89627 4.34389 7.27212 4.34389C5.64427 4.34389 4.32676 5.66348 4.32639 7.28797Z" stroke="#15528A"/>
<path d="M9.37964 25.6558H9.87964V25.1558V11.5881V11.0881H9.37964H5.16276H4.66276V11.5881V25.1558V25.1682C2.08829 22.5512 0.5 18.9611 0.5 15C0.5 6.99185 6.99185 0.5 15 0.5C23.0082 0.5 29.5 6.99185 29.5 15C29.5 18.7857 28.0492 22.2326 25.6733 24.815V17.714C25.6733 15.8764 25.4806 14.1341 24.6684 12.8458C23.8229 11.5047 22.3734 10.7508 20.1152 10.7508C18.5862 10.7508 17.384 11.3233 16.5686 12.0747V11.5881V11.0881H16.0686H12.0242H11.5242V11.5881V25.1555V25.6555H12.0242H16.2374H16.7374V25.1555V18.4438C16.7374 17.5684 16.8256 16.81 17.118 16.2801C17.2578 16.0268 17.442 15.8303 17.6895 15.6932C17.9399 15.5546 18.2847 15.4604 18.7679 15.4604C19.2287 15.4604 19.5303 15.5672 19.7365 15.7111C19.9437 15.8559 20.0975 16.0682 20.2099 16.3527C20.4461 16.9505 20.4598 17.7487 20.4598 18.5576V25.1558V25.6558H20.9598H24.8339C22.2495 28.0421 18.795 29.5 15 29.5C11.205 29.5 7.75051 28.0421 5.16607 25.6558H9.37964ZM4.32639 7.28797V7.28808C4.32639 8.91383 5.64421 10.2335 7.27212 10.2335C8.89605 10.2335 10.2157 8.91414 10.2157 7.28808C10.2157 5.66348 8.89627 4.34389 7.27212 4.34389C5.64427 4.34389 4.32676 5.66348 4.32639 7.28797Z" stroke="url(#paint0_linear)"/>
<defs>
<linearGradient id="paint0_linear" x1="15" y1="0" x2="15" y2="30" gradientUnits="userSpaceOnUse">
<stop stop-color="#15528A"/>
<stop offset="1" stop-color="white" stop-opacity="0"/>
</linearGradient>
</defs>
</svg>
