<svg width="59" height="59" viewBox="0 0 59 59" fill="none" xmlns="http://www.w3.org/2000/svg">
<path d="M59 29.5C59 45.7924 45.7924 59 29.5 59C14.4683 59 2.06258 47.7575 0.23358 33.2218C0.0795117 32.0032 0 30.7607 0 29.5C0 27.1906 0.264924 24.9426 0.767 22.786C3.80608 9.72901 15.517 0 29.5 0C43.4481 0 55.1361 9.68084 58.2089 22.6898C58.6122 24.3911 58.8663 26.1491 58.9591 27.9492C58.9867 28.4632 59 28.9798 59 29.5Z" fill="#535658"/>
<path d="M28.0244 31.8691V24.1993L21.3821 20.3644L14.7398 24.1993V31.8691L21.3821 35.704L28.0244 31.8691Z" fill="#D5D8DB"/>
<path d="M54.1837 30.7053L58.5123 33.2049L54.1837 35.7046L47.5419 31.8696V24.1996L54.1837 20.3646L58.2089 22.6897C58.6122 24.391 58.8663 26.149 58.9591 27.9491L56.4979 29.37V26.6981L54.1837 25.3628L51.8694 26.6981V29.37L54.1837 30.7053Z" fill="white"/>
<path d="M55.473 28.7786V27.2898L54.1836 26.5454L52.8941 27.2898V28.7786L54.1836 29.5232L55.473 28.7786Z" fill="#D5D8DB"/>
<path d="M11.6025 24.1997V34.314L7.17265 31.7867V26.6019L4.96084 25.3243L2.74892 26.6018V31.7865L0.23358 33.2219C0.0795117 32.0033 0 30.7607 0 29.5001C0 27.1907 0.264924 24.9427 0.767 22.786L4.96084 20.3646L11.6025 24.1997Z" fill="white"/>
<path d="M28.0238 31.8681L21.3816 20.3639L14.7396 24.1987L21.3818 35.7029L28.0238 31.8681Z" fill="#D5D8DB"/>
<path d="M14.7398 31.8691L17.0206 28.1498L14.7398 24.1992V31.8691Z" fill="#E5E5E5"/>
<path d="M25.8101 28.0339L28.0244 24.1993L21.3821 20.3644L25.8101 28.0339Z" fill="#D5D8DB"/>
<path d="M39.9346 11.475V21.6506L37.7082 20.3646L31.0653 24.1996V31.8696L37.7082 35.7046L44.35 31.8696V13.8386L39.9346 11.475ZM39.9225 29.3122L37.7081 30.591L35.4938 29.3122V26.756L37.7081 25.4772L39.9225 26.756V29.3122Z" fill="white"/>
<path d="M32.5132 41.3364C32.5132 41.3364 32.3828 40.2153 31.1835 40.2153C29.9842 40.2153 29.163 40.3717 29.163 41.0366C29.163 41.7015 31.4965 41.7015 32.383 41.9622C33.2695 42.2228 34.0516 42.9007 33.6605 44.1001C33.2694 45.2994 32.07 45.4298 30.2189 45.4298C28.3678 45.4298 27.9505 43.8914 27.9505 43.2918H28.9934C28.9934 43.2918 28.8629 44.2304 30.0883 44.3868C31.3137 44.5432 32.4854 44.6312 32.6434 43.6829C32.852 42.4314 28.6804 43.0572 28.3153 41.8318C28.007 40.7964 28.1849 39.4332 30.2707 39.2245C32.3566 39.0159 33.5038 39.9368 33.5038 41.3104L32.5132 41.3364Z" fill="#D5D8DB"/>
<path d="M22.4388 46.224L24.7444 47.5551C25.9028 48.2239 27.3509 47.3879 27.3509 46.0503V43.7177V39.4249H26.4111V45.7889C26.4111 46.5194 25.6204 46.9761 24.9876 46.6106L23.3784 45.6816V38.8897L29.2603 35.4941L35.1422 38.8897V45.6816L29.2603 49.0772L27.5659 48.099L26.4594 48.5452L29.2602 50.1623L36.0819 46.2237V38.3473L29.2603 34.4089L22.4387 38.3475V46.224H22.4388Z" fill="#D5D8DB"/>
</svg>
