<svg width="50" height="55" viewBox="0 0 50 55" fill="none" xmlns="http://www.w3.org/2000/svg">
<path d="M46.0346 29.0545C45.5401 28.4133 45.0034 27.7719 44.4298 27.1329C44.8241 26.6754 45.1997 26.2171 45.5533 25.7588C49.2073 21.0208 50.2448 16.7228 48.4745 13.6566C46.7043 10.5904 42.4638 9.3399 36.5331 10.1355C35.9079 10.2194 35.2697 10.3257 34.6213 10.452C34.4006 9.80697 34.167 9.1821 33.9197 8.58097C31.6434 3.04745 28.44 0 24.8995 0C21.359 0 18.1555 3.04745 15.8794 8.58097C15.6321 9.1821 15.3985 9.80697 15.1778 10.452C14.5294 10.3258 13.8911 10.2194 13.266 10.1355C7.33591 9.34001 3.09489 10.5904 1.32458 13.6566C-0.445729 16.7229 0.591751 21.0208 4.24581 25.7588C4.59923 26.2171 4.97488 26.6754 5.36923 27.1329C4.7956 27.7719 4.25902 28.4132 3.76445 29.0545C0.110394 33.7925 -0.927087 38.0905 0.843225 41.1567C2.2656 43.6203 5.282 44.9116 9.48896 44.9116C10.518 44.9116 11.619 44.8342 12.7846 44.6778C13.5352 44.5771 14.3046 44.4443 15.0883 44.2826C15.3349 45.0221 15.5984 45.7359 15.8794 46.4191C18.1555 51.9525 21.359 55 24.8995 55C28.44 55 31.6434 51.9525 33.9196 46.419C34.2006 45.7358 34.4641 45.022 34.7106 44.2825C35.4944 44.4442 36.2637 44.5771 37.0144 44.6777C38.1803 44.8341 39.2807 44.9115 40.31 44.9115C44.5165 44.9115 47.5336 43.62 48.9557 41.1565C50.7262 38.0904 49.6887 33.7925 46.0346 29.0545ZM39.8468 13.119C42.7925 13.119 44.8746 13.8668 45.6836 15.2679C46.7421 17.1013 45.7645 20.2078 43.0014 23.7906C42.7381 24.132 42.4608 24.4736 42.1721 24.8151C40.5565 23.2781 38.738 21.7742 36.7595 20.341C36.4862 17.9544 36.0753 15.6738 35.538 13.5534C37.1154 13.2623 38.5638 13.119 39.8468 13.119ZM29.1776 35.2335C27.729 36.0698 26.2993 36.82 24.9005 37.4871C23.5007 36.8198 22.0707 36.0703 20.6214 35.2335C19.0224 34.3103 17.4922 33.3332 16.0486 32.3183C15.9274 30.7768 15.8619 29.1684 15.8619 27.5C15.8619 25.6311 15.9438 23.837 16.0947 22.1287C17.382 21.2447 18.7343 20.3914 20.1399 19.5798C21.7556 18.647 23.3472 17.8227 24.8994 17.1001C26.4516 17.8227 28.0433 18.647 29.6589 19.5798C31.0646 20.3914 32.4169 21.2447 33.7042 22.1287C33.855 23.837 33.937 25.6311 33.937 27.5C33.937 29.1684 33.8715 30.7768 33.7503 32.3183C32.3068 33.3332 30.7765 34.3103 29.1776 35.2335ZM33.2587 36.5239C33.0428 37.8956 32.7809 39.195 32.4801 40.4128C31.2849 40.0655 30.0395 39.6452 28.7551 39.1501C29.4346 38.7893 30.1132 38.4145 30.7889 38.0244C31.6304 37.5385 32.454 37.0373 33.2587 36.5239ZM21.0437 39.15C19.759 39.6452 18.514 40.065 17.3186 40.4123C17.0179 39.1948 16.7561 37.8955 16.5401 36.5239C17.3448 37.0373 18.1684 37.5385 19.01 38.0243C19.6857 38.4145 20.3641 38.7893 21.0437 39.15ZM12.6785 29.7498C11.658 28.9044 10.7019 28.0431 9.81961 27.1738C10.7137 26.3212 11.677 25.4779 12.7018 24.6511C12.6607 25.5915 12.6392 26.542 12.6392 27.5C12.6392 28.2551 12.6529 29.0053 12.6785 29.7498ZM16.6293 17.9296C16.846 16.6456 17.1033 15.4285 17.395 14.2852C18.54 14.6052 19.7332 14.9936 20.9644 15.4513C20.1504 15.8762 19.3375 16.322 18.5287 16.789C17.8848 17.1606 17.2518 17.5415 16.6293 17.9296ZM28.8345 15.4512C30.0656 14.9935 31.2589 14.605 32.404 14.2851C32.6956 15.4285 32.953 16.6456 33.1697 17.9296C32.5472 17.5415 31.9141 17.1606 31.2704 16.789C30.4614 16.3219 29.6486 15.8761 28.8345 15.4512ZM37.0971 24.6511C38.1219 25.4779 39.0853 26.3212 39.9794 27.1738C39.0971 28.0431 38.1409 28.9044 37.1204 29.7498C37.1461 29.0053 37.1598 28.2551 37.1598 27.5C37.1598 26.5419 37.1383 25.5915 37.0971 24.6511ZM24.8995 3.22266C27.2304 3.22266 29.7065 6.18782 31.4764 11.2038C29.344 11.8031 27.1334 12.5977 24.8995 13.569C22.6655 12.5977 20.455 11.8032 18.3226 11.2038C20.0925 6.18782 22.5685 3.22266 24.8995 3.22266ZM4.1154 15.268C4.9245 13.8667 7.00559 13.1191 9.95217 13.1191C11.2351 13.1191 12.6836 13.2624 14.2611 13.5536C13.7236 15.674 13.3129 17.9546 13.0396 20.3411C11.0611 21.7743 9.24254 23.2782 7.62702 24.8152C7.33827 24.4737 7.06102 24.1321 6.79772 23.7907C4.03451 20.2079 3.05687 17.1015 4.1154 15.268ZM9.47081 41.6942C6.52509 41.694 4.44304 40.9464 3.63404 39.5453C2.57551 37.7118 3.55316 34.6054 6.31626 31.0226C6.70996 30.512 7.1331 30.0009 7.58309 29.4906C9.18034 31.0609 10.9933 32.6012 12.9754 34.0721C13.2364 36.5713 13.6461 38.962 14.1938 41.1809C12.4548 41.5259 10.8655 41.6943 9.47081 41.6942ZM24.8995 51.7773C22.5233 51.7773 19.9966 48.6954 18.2207 43.5015C20.3892 42.8711 22.6345 42.0411 24.8995 41.0321C27.1645 42.0411 29.4098 42.8711 31.5782 43.5015C29.8023 48.6954 27.2757 51.7773 24.8995 51.7773ZM46.1649 39.5453C44.973 41.61 41.0186 42.2546 35.605 41.1809C36.1529 38.962 36.5625 36.5713 36.8234 34.0721C38.8057 32.6012 40.6186 31.0609 42.2158 29.4906C42.6658 30.0009 43.0889 30.5121 43.4826 31.0226C46.2459 34.6054 47.2236 37.7118 46.1649 39.5453Z" fill="#F2F2F2"/>
<path d="M24.8995 32.479C27.6493 32.479 29.8785 30.2498 29.8785 27.5C29.8785 24.7502 27.6493 22.521 24.8995 22.521C22.1496 22.521 19.9205 24.7502 19.9205 27.5C19.9205 30.2498 22.1496 32.479 24.8995 32.479Z" fill="#F2F2F2"/>
</svg>
