<svg width="30" height="30" viewBox="0 0 30 30" fill="none" xmlns="http://www.w3.org/2000/svg">
<path d="M7.59726 4.64891L7.59716 4.64901C6.99064 5.26721 6.68895 6.03678 6.68895 6.92317V17.7032C6.68895 20.057 7.5034 22.0849 9.12623 23.7588C10.7488 25.4337 12.7201 26.2801 15.0147 26.2801H20.1922C21.0507 26.2801 21.7938 25.9576 22.3984 25.3345C23.005 24.7113 23.3107 23.9495 23.3107 23.0796C23.3107 22.2093 23.0049 21.4494 22.3991 20.8257C21.7948 20.201 21.0486 19.8779 20.1916 19.8779H15.0123C14.43 19.8779 13.9473 19.6734 13.5367 19.2501C13.1261 18.8248 12.9226 18.319 12.9226 17.7008V15.5233H20.1922C21.0489 15.5233 21.7941 15.2012 22.3993 14.5772C23.0051 13.9538 23.3117 13.1927 23.3117 12.3235C23.3117 11.4525 23.005 10.6913 22.3973 10.0677C21.7898 9.44404 21.0443 9.12179 20.1839 9.12179H12.9232V6.92133C12.9232 6.05129 12.6187 5.29169 12.0176 4.66891C11.4176 4.04249 10.6746 3.71995 9.82158 3.71995C8.95373 3.71995 8.20172 4.03317 7.59726 4.64891ZM0.5 15C0.5 6.99185 6.99185 0.5 15 0.5C23.0082 0.5 29.5 6.99185 29.5 15C29.5 23.0082 23.0082 29.5 15 29.5C6.99185 29.5 0.5 23.0082 0.5 15Z" fill="#15528A"/>
<path d="M7.59726 4.64891L7.59716 4.64901C6.99064 5.26721 6.68895 6.03678 6.68895 6.92317V17.7032C6.68895 20.057 7.5034 22.0849 9.12623 23.7588C10.7488 25.4337 12.7201 26.2801 15.0147 26.2801H20.1922C21.0507 26.2801 21.7938 25.9576 22.3984 25.3345C23.005 24.7113 23.3107 23.9495 23.3107 23.0796C23.3107 22.2093 23.0049 21.4494 22.3991 20.8257C21.7948 20.201 21.0486 19.8779 20.1916 19.8779H15.0123C14.43 19.8779 13.9473 19.6734 13.5367 19.2501C13.1261 18.8248 12.9226 18.319 12.9226 17.7008V15.5233H20.1922C21.0489 15.5233 21.7941 15.2012 22.3993 14.5772C23.0051 13.9538 23.3117 13.1927 23.3117 12.3235C23.3117 11.4525 23.005 10.6913 22.3973 10.0677C21.7898 9.44404 21.0443 9.12179 20.1839 9.12179H12.9232V6.92133C12.9232 6.05129 12.6187 5.29169 12.0176 4.66891C11.4176 4.04249 10.6746 3.71995 9.82158 3.71995C8.95373 3.71995 8.20172 4.03317 7.59726 4.64891ZM0.5 15C0.5 6.99185 6.99185 0.5 15 0.5C23.0082 0.5 29.5 6.99185 29.5 15C29.5 23.0082 23.0082 29.5 15 29.5C6.99185 29.5 0.5 23.0082 0.5 15Z" stroke="#15528A"/>
<path d="M7.59726 4.64891L7.59716 4.64901C6.99064 5.26721 6.68895 6.03678 6.68895 6.92317V17.7032C6.68895 20.057 7.5034 22.0849 9.12623 23.7588C10.7488 25.4337 12.7201 26.2801 15.0147 26.2801H20.1922C21.0507 26.2801 21.7938 25.9576 22.3984 25.3345C23.005 24.7113 23.3107 23.9495 23.3107 23.0796C23.3107 22.2093 23.0049 21.4494 22.3991 20.8257C21.7948 20.201 21.0486 19.8779 20.1916 19.8779H15.0123C14.43 19.8779 13.9473 19.6734 13.5367 19.2501C13.1261 18.8248 12.9226 18.319 12.9226 17.7008V15.5233H20.1922C21.0489 15.5233 21.7941 15.2012 22.3993 14.5772C23.0051 13.9538 23.3117 13.1927 23.3117 12.3235C23.3117 11.4525 23.005 10.6913 22.3973 10.0677C21.7898 9.44404 21.0443 9.12179 20.1839 9.12179H12.9232V6.92133C12.9232 6.05129 12.6187 5.29169 12.0176 4.66891C11.4176 4.04249 10.6746 3.71995 9.82158 3.71995C8.95373 3.71995 8.20172 4.03317 7.59726 4.64891ZM0.5 15C0.5 6.99185 6.99185 0.5 15 0.5C23.0082 0.5 29.5 6.99185 29.5 15C29.5 23.0082 23.0082 29.5 15 29.5C6.99185 29.5 0.5 23.0082 0.5 15Z" stroke="url(#paint0_linear)"/>
<defs>
<linearGradient id="paint0_linear" x1="15" y1="0" x2="15" y2="30" gradientUnits="userSpaceOnUse">
<stop stop-color="#15528A"/>
<stop offset="1" stop-color="white" stop-opacity="0"/>
</linearGradient>
</defs>
</svg>
